<?xml version="1.0" standalone="no"?>
<!DOCTYPE svg PUBLIC "-//W3C//DTD SVG 20010904//EN"
 "http://www.w3.org/TR/2001/REC-SVG-20010904/DTD/svg10.dtd">
<svg version="1.0" xmlns="http://www.w3.org/2000/svg"
 width="562.000000pt" height="562.000000pt" viewBox="0 0 562.000000 562.000000"
 preserveAspectRatio="xMidYMid meet">
<metadata>
Created by potrace 1.11, written by Peter Selinger 2001-2013
</metadata>
<g transform="translate(0.000000,562.000000) scale(0.100000,-0.100000)"
fill="#000000" stroke="none">
<path d="M3010 4709 c-96 -379 -299 -705 -595 -956 -126 -107 -210 -155 -212
-120 -1 6 -4 68 -8 137 -17 287 43 596 167 859 22 47 42 89 44 92 4 8 -55 -5
-132 -27 l-52 -15 -40 -102 c-176 -445 -186 -929 -28 -1372 36 -99 43 -135 29
-135 -12 0 -91 65 -160 130 -178 169 -347 429 -432 667 -44 120 -90 304 -94
372 0 15 -127 -117 -127 -133 1 -23 49 -194 76 -268 15 -43 25 -81 21 -84 -3
-4 -62 9 -129 29 -188 55 -167 57 -211 -23 -25 -46 -34 -70 -25 -71 25 -1 73
-10 108 -19 19 -5 37 -9 40 -9 13 -1 213 -76 271 -102 62 -29 70 -36 122 -117
163 -254 402 -483 659 -633 65 -38 69 -43 108 -125 22 -47 40 -87 40 -89 0 -2
4 -14 9 -27 5 -13 10 -27 11 -33 1 -5 7 -16 13 -23 7 -9 11 -99 12 -260 2
-255 6 -289 47 -358 38 -65 136 -105 238 -97 42 3 140 48 140 65 0 4 5 8 10 8
6 0 10 -13 10 -30 0 -24 4 -30 23 -31 12 0 46 -1 75 -3 46 -2 52 0 53 18 0 12
1 161 1 331 1 304 1 311 26 380 13 39 31 82 38 97 8 15 13 29 12 30 -7 9 169
304 207 344 5 7 26 31 45 55 173 216 431 409 690 516 91 38 220 83 220 78 0
-3 11 0 25 5 14 5 38 12 53 15 15 3 34 8 42 10 8 2 23 4 33 4 16 1 14 10 -18
69 -20 37 -38 68 -39 69 -1 2 -47 -9 -101 -23 -190 -49 -397 -140 -556 -243
-35 -23 -72 -41 -82 -41 -22 0 -23 -7 23 158 52 188 69 328 64 547 -4 210 -9
265 -27 281 -12 11 -145 84 -153 84 -2 0 -2 -12 0 -27 10 -64 18 -121 25 -158
13 -69 9 -365 -6 -465 -30 -205 -89 -396 -179 -575 -46 -91 -136 -233 -172
-271 -11 -11 -25 -30 -31 -42 -13 -24 -47 -30 -48 -9 -2 47 -39 154 -79 225
-81 145 -201 260 -350 335 l-69 35 -31 -64 -31 -64 77 -40 c179 -94 302 -258
341 -458 18 -94 7 -240 -26 -332 -22 -63 -50 -148 -72 -220 -3 -8 -6 -107 -7
-220 -2 -173 -5 -210 -19 -238 -53 -100 -219 -94 -254 8 -8 23 -12 110 -12
247 -1 210 -1 212 -32 300 -38 108 -112 266 -166 354 -90 149 -198 412 -208
509 -4 31 0 37 33 56 20 12 76 50 123 85 296 218 528 512 656 829 41 102 46
114 48 120 1 3 4 12 7 20 3 8 17 56 30 107 l25 92 -26 6 c-14 4 -47 9 -73 12
l-47 5 -11 -43z"/>
<path d="M2614 4635 c-86 -36 -167 -153 -166 -240 1 -64 18 -117 53 -165 18
-23 26 -27 41 -19 10 5 18 7 18 4 0 -7 65 41 93 68 21 21 71 107 61 107 -4 0
-2 6 3 13 27 33 -11 191 -55 230 -15 13 -22 13 -48 2z"/>
<path d="M3283 4446 c-101 -110 -100 -251 2 -365 21 -22 43 -41 51 -41 35 0
102 85 130 165 14 40 6 121 -16 173 -20 47 -87 122 -109 122 -5 0 -31 -24 -58
-54z"/>
<path d="M1779 4210 c-106 -109 -102 -268 7 -374 21 -20 41 -36 45 -36 4 0 30
22 57 48 106 107 108 248 5 362 -25 27 -50 50 -56 50 -6 0 -32 -22 -58 -50z"/>
<path d="M4042 4214 c-134 -67 -190 -231 -123 -362 29 -57 68 -54 154 11 102
79 128 245 55 350 -11 15 -23 27 -27 27 -4 0 -30 -12 -59 -26z"/>
<path d="M3137 3808 c-101 -138 -58 -333 90 -403 l37 -18 28 33 c79 95 75 241
-9 339 -29 34 -97 81 -117 81 -3 0 -16 -15 -29 -32z"/>
<path d="M1122 3410 c-45 -9 -118 -53 -136 -82 -8 -13 -2 -27 28 -65 66 -85
159 -129 250 -117 45 5 124 44 150 73 18 20 18 21 -8 65 -56 96 -173 148 -284
126z"/>
<path d="M4350 3406 c-82 -22 -149 -75 -178 -140 -12 -28 -11 -32 15 -56 66
-62 189 -81 275 -43 48 22 113 82 137 127 13 24 12 28 -9 51 -52 55 -161 83
-240 61z"/>
<path d="M2655 3098 c-49 -105 -24 -233 60 -307 44 -38 120 -75 139 -68 8 3
23 26 36 51 44 91 21 217 -53 294 -33 35 -115 82 -142 82 -9 0 -26 -22 -40
-52z"/>
<path d="M1635 3103 c-11 -3 -25 -9 -31 -14 -16 -13 -4 -120 17 -145 5 -6 6
-14 2 -17 -3 -4 -1 -7 5 -7 7 0 12 -5 12 -10 0 -19 53 -70 99 -96 66 -37 132
-48 189 -31 33 11 37 21 32 92 -3 47 -45 119 -95 163 -65 57 -155 82 -230 65z"/>
<path d="M3696 3082 c-62 -14 -149 -83 -182 -145 -21 -40 -35 -123 -25 -150
10 -25 17 -27 96 -29 90 -2 189 62 237 155 22 44 32 161 13 162 -5 0 -14 3
-20 6 -11 7 -90 8 -119 1z"/>
<path d="M929 2933 c-24 -4 -25 -7 -25 -67 l1 -63 115 3 c115 3 211 -6 285
-26 192 -53 330 -129 460 -253 l65 -62 0 -328 c0 -180 3 -327 8 -328 12 -1 85
-1 117 0 l31 1 -1 118 c-1 64 1 123 3 130 3 7 23 12 52 12 l48 0 84 -130 c75
-117 86 -130 113 -131 31 -1 92 -1 134 0 l24 1 -19 23 c-27 29 -204 303 -204
314 0 5 43 71 95 147 131 190 128 171 33 170 -44 -1 -83 -5 -87 -10 -5 -5 -45
-64 -90 -131 l-81 -123 -53 0 -53 0 2 128 c0 84 -4 136 -12 152 -20 40 -161
180 -244 241 -134 99 -319 175 -495 203 -83 13 -243 18 -306 9z"/>
<path d="M4437 2894 c-1 -1 -36 -4 -77 -7 -187 -14 -389 -70 -565 -155 -115
-56 -180 -99 -285 -187 -56 -47 -97 -74 -120 -78 -88 -15 -163 -40 -195 -63
-18 -13 -18 -16 5 -66 13 -29 25 -54 26 -56 1 -2 28 8 60 21 33 13 74 27 91
30 l33 6 2 -266 3 -267 75 1 75 0 1 262 c0 143 3 263 5 266 7 6 99 -19 136
-38 18 -10 35 -17 38 -17 6 0 57 112 52 116 -9 9 -116 52 -145 59 l-32 7 49
39 c27 21 51 39 54 39 2 0 30 15 61 34 121 73 325 147 466 170 117 19 286 26
393 16 l67 -5 0 67 c0 64 -1 68 -22 69 -75 3 -249 5 -251 3z"/>
<path d="M1300 2466 c-100 -22 -157 -66 -198 -155 -25 -54 -26 -64 -30 -281
l-4 -225 54 2 c120 3 107 -7 110 80 l3 77 135 1 c74 1 140 0 145 -2 6 -2 10
-35 9 -78 l-1 -75 36 -1 c20 -1 54 -1 76 -2 l40 0 2 219 c1 199 0 224 -19 273
-51 133 -196 201 -358 167z m157 -146 c43 -26 63 -68 67 -138 5 -98 14 -92
-150 -92 l-144 0 0 70 c0 86 18 133 62 160 44 26 122 27 165 0z"/>
<path d="M4168 2475 c-2 -1 -24 -5 -50 -8 -25 -3 -69 -17 -97 -32 -123 -62
-184 -161 -185 -300 -1 -71 3 -88 32 -147 89 -181 323 -247 515 -146 104 56
166 155 172 276 10 191 -126 338 -329 356 -30 2 -56 3 -58 1z m122 -157 c26
-13 57 -41 74 -65 25 -36 30 -52 30 -110 1 -84 -23 -135 -83 -178 -38 -27 -51
-30 -116 -30 -65 0 -78 3 -116 30 -59 42 -84 94 -84 177 0 58 4 72 30 110 62
87 170 114 265 66z"/>
<path d="M572 2451 c-75 -26 -110 -57 -144 -131 -18 -41 -21 -66 -23 -277 -2
-230 -2 -233 19 -234 12 0 47 -1 79 -2 l57 -2 0 97 0 97 43 -15 c23 -8 74 -15
114 -16 170 -1 265 81 272 234 4 82 -16 135 -69 188 -35 35 -59 50 -106 63
-78 22 -175 21 -242 -2z m193 -125 c87 -37 90 -191 3 -227 -45 -19 -118 -16
-167 6 -41 18 -41 18 -41 74 0 33 7 70 18 91 30 62 113 86 187 56z"/>
<path d="M4688 2462 c-15 -3 -17 -39 -17 -328 -1 -256 1 -324 11 -325 67 -4
372 0 403 5 58 11 110 41 141 82 55 72 28 203 -48 235 -16 6 -28 14 -28 16 0
3 15 23 34 44 18 22 36 55 39 74 7 41 -8 98 -31 126 -23 27 -83 58 -129 65
-39 7 -347 11 -375 6z m352 -138 c32 -31 34 -68 6 -100 -23 -27 -28 -28 -122
-30 l-99 -2 2 76 c0 42 2 79 2 80 1 2 44 2 96 0 79 -2 98 -6 115 -24z m-9
-243 c29 -2 60 -35 65 -67 4 -24 -1 -39 -19 -60 -24 -27 -27 -28 -136 -30 -78
-2 -111 1 -112 9 -5 51 -4 134 2 142 6 8 124 12 200 6z"/>
<path d="M3149 1629 c-98 -27 -168 -83 -217 -174 -24 -45 -27 -61 -27 -150 0
-85 4 -107 24 -148 94 -190 364 -252 547 -126 60 41 60 52 3 100 l-50 42 -22
-21 c-39 -35 -87 -53 -141 -53 -124 0 -209 84 -208 206 1 64 22 114 66 152 72
64 183 70 263 14 24 -17 46 -31 48 -31 2 0 25 19 50 43 l45 42 -25 28 c-73 78
-228 111 -356 76z"/>
<path d="M3777 1638 c-61 -8 -144 -33 -189 -56 l-36 -19 26 -57 c19 -43 29
-55 41 -50 46 19 119 43 141 46 l25 3 2 -250 c1 -137 2 -257 2 -266 1 -12 14
-15 70 -14 39 0 73 4 77 7 4 4 7 124 7 266 l0 259 41 -8 c23 -4 63 -17 90 -29
27 -11 51 -18 54 -16 2 3 15 27 27 55 28 59 27 60 -67 95 -96 36 -211 49 -311
34z"/>
<path d="M1555 1632 l-30 -3 1 -322 c1 -177 2 -324 3 -327 0 -3 34 -6 74 -5
l72 0 3 133 3 132 52 -1 52 0 86 -133 86 -132 87 0 c47 1 86 2 86 3 0 1 -48
75 -107 165 -58 89 -106 167 -106 173 0 6 34 61 75 121 114 165 128 186 128
193 0 6 -159 6 -164 0 -1 -2 -40 -61 -85 -131 l-83 -128 -54 0 -54 0 0 130 c0
72 -3 130 -7 131 -35 3 -93 3 -118 1z"/>
<path d="M2194 1628 c-10 -16 -1 -299 9 -330 38 -110 115 -161 242 -162 83 0
125 13 171 56 l22 19 -4 -53 c-7 -95 -47 -139 -138 -151 -49 -7 -151 19 -195
49 l-35 23 -28 -51 c-15 -28 -28 -57 -28 -64 0 -20 118 -72 184 -82 116 -18
234 5 299 59 44 36 85 112 94 172 8 57 10 496 2 509 -8 12 -124 17 -141 7 -7
-5 -12 -52 -13 -132 -1 -140 -14 -180 -68 -212 -39 -23 -127 -24 -161 -1 -49
31 -59 69 -60 214 0 84 -4 132 -11 133 -60 4 -138 3 -141 -3z"/>
</g>
</svg>
